HIERARCHY
ROOT Hips
{
	OFFSET -0.001795 -0.223333 0.028219
	CHANNELS 6 Xposition Yposition Zposition Zrotation Yrotation Xrotation 
	JOINT LeftUpLeg
	{
		OFFSET 0.069520 -0.091406 -0.006815
		CHANNELS 3 Zrotation Yrotation Xrotation
		JOINT LeftLeg
		{
			OFFSET 0.034277 -0.375199 -0.004496
			CHANNELS 3 Zrotation Yrotation Xrotation
			JOINT LeftFoot
			{
				OFFSET -0.013596 -0.397961 -0.043693
				CHANNELS 3 Zrotation Yrotation Xrotation
				JOINT LeftToe
				{
					OFFSET 0.026358 -0.055791 0.119288
					CHANNELS 3 Zrotation Yrotation Xrotation
					End Site
					{
						OFFSET 0.000000 0.000000 0.000000
					}
				}
			}
		}
	}
	JOINT RightUpLeg
	{
		OFFSET -0.067670 -0.090522 -0.004320
		CHANNELS 3 Zrotation Yrotation Xrotation
		JOINT RightLeg
		{
			OFFSET -0.038290 -0.382569 -0.008850
			CHANNELS 3 Zrotation Yrotation Xrotation
			JOINT RightFoot
			{
				OFFSET 0.015774 -0.398415 -0.042312
				CHANNELS 3 Zrotation Yrotation Xrotation
				JOINT RightToe
				{
					OFFSET -0.025372 -0.048144 0.123348
					CHANNELS 3 Zrotation Yrotation Xrotation
					End Site
					{
						OFFSET 0.000000 0.000000 0.000000
					}
				}
			}
		}
	}
	JOINT Spine
	{
		OFFSET -0.002533 0.108963 -0.026696
		CHANNELS 3 Zrotation Yrotation Xrotation
		JOINT Spine1
		{
			OFFSET 0.005487 0.135180 0.001092
			CHANNELS 3 Zrotation Yrotation Xrotation
			JOINT Spine2
			{
				OFFSET 0.001457 0.052922 0.025425
				CHANNELS 3 Zrotation Yrotation Xrotation
				JOINT Neck
				{
					OFFSET -0.002778 0.213870 -0.042857
					CHANNELS 3 Zrotation Yrotation Xrotation
					JOINT Head
					{
						OFFSET 0.005152 0.064970 0.051349
						CHANNELS 3 Zrotation Yrotation Xrotation
						End Site
						{
							OFFSET 0.000000 0.000000 0.000000
						}
					}
				}
				JOINT LeftShoulder
				{
					OFFSET 0.078845 0.121749 -0.034090
					CHANNELS 3 Zrotation Yrotation Xrotation
					JOINT LeftArm
					{
						OFFSET 0.090977 0.030469 -0.008868
						CHANNELS 3 Zrotation Yrotation Xrotation
						JOINT LeftForeArm
						{
							OFFSET 0.259612 -0.012772 -0.027456
							CHANNELS 3 Zrotation Yrotation Xrotation
							JOINT LeftHand
							{
								OFFSET 0.249234 0.008986 -0.001171
								CHANNELS 3 Zrotation Yrotation Xrotation
								End Site
								{
									OFFSET 0.000000 0.000000 0.000000
								}
							}
						}
					}
				}
				JOINT RightShoulder
				{
					OFFSET -0.081759 0.118833 -0.038615
					CHANNELS 3 Zrotation Yrotation Xrotation
					JOINT RightArm
					{
						OFFSET -0.096012 0.032551 -0.009143
						CHANNELS 3 Zrotation Yrotation Xrotation
						JOINT RightForeArm
						{
							OFFSET -0.253742 -0.013329 -0.021401
							CHANNELS 3 Zrotation Yrotation Xrotation
							JOINT RightHand
							{
								OFFSET -0.255298 0.007772 -0.005559
								CHANNELS 3 Zrotation Yrotation Xrotation
								End Site
								{
									OFFSET 0.000000 0.000000 0.000000
								}
							}
						}
					}
				}
			}
		}
	}
}
MOTION
Frames: 16
Frame Time: 0.050000
0.000000 0.941517 0.000000 -1.609675 0.594829 4.867147 -1.063461 0.032146 0.039168 0.615830 -0.021778 -1.104904 -0.026495 2.229615 5.231668 0.000000 0.000000 0.000000 -0.248417 0.256057 -2.503147 0.988026 -0.138629 -1.131073 -2.163384 -8.031219 8.089118 0.000000 0.000000 0.000000 -0.193173 0.062025 -1.460288 -0.567735 0.302855 -1.505910 0.681090 0.768007 8.991861 2.840126 -0.238232 -19.005402 0.000000 0.000000 0.000000 -19.440461 -1.387944 -1.245332 -41.971689 -1.814356 -4.565966 -5.622392 -25.923582 2.262997 0.000000 0.000000 0.000000 17.690108 4.240229 0.971600 47.316598 6.414574 -2.568487 -1.954428 22.338099 0.470521 0.000000 0.000000 0.000000 
0.002339 0.940477 0.001670 -1.571522 0.165251 5.255997 -1.072678 0.042388 0.138098 0.158118 0.045429 -1.762630 0.145328 2.477530 5.103611 0.000000 0.000000 0.000000 -0.446950 0.289437 -2.822623 0.901580 -0.131286 -1.187370 -2.044071 -7.740900 7.787880 0.000000 0.000000 0.000000 -0.701808 0.091811 -2.088028 -0.621265 0.319597 -1.225328 0.774639 1.131804 8.758896 3.330020 -0.414551 -19.876441 0.000000 0.000000 0.000000 -17.981155 -0.106865 -1.809832 -42.990756 -1.581040 -4.735836 -5.157110 -26.223829 2.179667 0.000000 0.000000 0.000000 16.722290 3.529093 0.656513 48.716605 6.274618 -2.653569 -2.107374 24.197105 0.499118 0.000000 0.000000 0.000000 
0.004679 0.939949 0.003110 -1.540330 -0.302772 5.760611 -1.055734 -0.052690 -0.807642 -0.352070 0.063444 -0.829808 0.428684 2.892054 4.847762 0.000000 0.000000 0.000000 -0.540453 0.316850 -3.096107 0.626979 -0.119074 -1.604244 -1.863281 -7.398930 7.760601 0.000000 0.000000 0.000000 -0.368455 0.092668 -2.153220 -0.822100 0.438666 -2.844285 0.870500 1.033770 9.811202 3.061939 -0.340023 -19.676364 0.000000 0.000000 0.000000 -16.842773 0.400134 -1.830370 -43.202551 -1.045222 -5.042673 -5.824843 -25.436595 2.289205 0.000000 0.000000 0.000000 17.369150 4.417278 1.040057 47.620319 6.554429 -2.572146 -2.355198 24.602597 0.445745 0.000000 0.000000 0.000000 
0.006978 0.938769 0.004540 -1.749991 -0.006903 5.490214 -0.959234 -0.036147 -0.623670 -0.316021 0.048535 -0.470955 0.439084 2.682662 4.201276 0.000000 0.000000 0.000000 -0.469946 0.336031 -3.302476 0.704417 -0.088092 -0.455736 -2.106637 -7.728768 7.227188 0.000000 0.000000 0.000000 -0.714376 0.098888 -2.261240 -0.926799 0.475480 -2.145725 1.404565 0.365391 9.461751 2.577741 -0.150076 -19.449922 0.000000 0.000000 0.000000 -16.382167 1.051853 -1.993944 -43.644961 -0.416080 -5.308396 -6.284490 -25.479110 2.426964 0.000000 0.000000 0.000000 17.331062 5.112922 1.246613 47.561675 6.924834 -2.357175 -3.168443 25.012017 0.255843 0.000000 0.000000 0.000000 
0.009265 0.938051 0.005904 -1.906072 0.021074 5.118493 -0.770789 -0.027016 -0.482104 -0.616414 0.060936 0.180975 0.518744 2.657951 3.731885 0.000000 0.000000 0.000000 -0.627757 0.367474 -3.624034 1.032962 -0.075597 1.034948 -2.222108 -7.840900 6.769245 0.000000 0.000000 0.000000 -0.669352 0.065796 -1.358414 -0.790352 0.416181 -2.229722 1.565998 0.622556 8.999794 2.973172 -0.439215 -18.466990 0.000000 0.000000 0.000000 -16.489277 0.547297 -1.810707 -43.137715 -0.204689 -5.272650 -6.380450 -25.008819 2.380328 0.000000 0.000000 0.000000 18.131867 5.044440 1.230244 45.881971 6.994538 -2.252503 -2.353293 25.271204 0.426043 0.000000 0.000000 0.000000 
0.011725 0.936820 0.007192 -2.083763 0.166374 4.742544 -0.843801 -0.021957 -0.442620 -0.407999 0.012847 1.011772 0.641447 2.615972 2.991432 0.000000 0.000000 0.000000 -0.536711 0.417138 -4.149881 0.969189 -0.010434 2.924806 -2.444783 -8.129750 6.133920 0.000000 0.000000 0.000000 -0.879703 0.045139 -0.683415 -0.672324 0.358724 -1.956738 1.867468 0.278333 8.842942 2.808975 -0.376727 -18.480730 0.000000 0.000000 0.000000 -16.045158 1.045349 -1.953098 -43.500894 -0.138461 -5.348279 -6.403189 -25.448915 2.447531 0.000000 0.000000 0.000000 17.941147 5.404652 1.343834 46.118654 7.671996 -1.984560 -2.901474 25.501864 0.302349 0.000000 0.000000 0.000000 
0.014223 0.936020 0.008546 -2.161468 0.405538 4.241768 -0.863586 0.018931 -0.023700 -0.451192 0.005999 1.394012 0.619465 2.400342 2.541662 0.000000 0.000000 0.000000 -0.885780 0.515963 -5.233482 1.523589 -0.003820 6.066276 -2.715263 -8.562558 5.627917 0.000000 0.000000 0.000000 -1.104590 0.013687 0.385954 -0.596830 0.333200 -2.271902 1.868892 0.388841 9.215820 2.935090 -0.391202 -18.876933 0.000000 0.000000 0.000000 -16.232353 0.684240 -1.831328 -44.198577 -0.392984 -5.377441 -6.890175 -25.683774 2.573497 0.000000 0.000000 0.000000 18.441667 5.741877 1.589793 46.664179 7.891724 -1.982260 -2.403491 25.856221 0.429347 0.000000 0.000000 0.000000 
0.016728 0.934964 0.010030 -2.188515 0.798463 3.603791 -0.793947 0.075760 0.585894 -0.701294 0.026163 1.707867 0.525084 2.005903 2.023591 0.000000 0.000000 0.000000 -1.169521 0.719631 -7.572480 1.932511 0.043919 11.725090 -3.119581 -9.361008 5.385471 0.000000 0.000000 0.000000 -1.321057 -0.013263 1.377415 -0.487290 0.280252 -1.995268 1.736219 0.731667 9.470679 3.796913 -0.806688 -19.120088 0.000000 0.000000 0.000000 -15.858921 -0.066885 -1.527232 -45.737962 -0.500932 -5.535766 -7.831971 -27.179028 2.930736 0.000000 0.000000 0.000000 18.845271 5.985993 1.881447 48.148275 8.298145 -1.940500 -2.927409 25.122392 0.348244 0.000000 0.000000 0.000000 
0.018845 0.933875 0.012024 -2.205917 1.382129 3.060257 -0.844452 0.167382 1.522614 -0.641664 0.029967 1.291416 0.327226 1.425242 1.587358 0.000000 0.000000 0.000000 -1.484137 1.009099 -11.130841 2.786231 -0.073080 19.774885 -3.743586 -10.725658 5.581549 0.000000 0.000000 0.000000 -1.690299 -0.028286 2.254680 -0.502998 0.289760 -1.950844 1.984270 0.588818 9.943664 3.997838 -0.893119 -19.354221 0.000000 0.000000 0.000000 -16.435663 -0.171194 -1.552293 -46.945835 -1.079327 -5.521035 -9.122393 -27.809981 3.324055 0.000000 0.000000 0.000000 18.517466 6.435038 2.186406 50.125016 7.983954 -2.172642 -2.174778 24.055801 0.488989 0.000000 0.000000 0.000000 
0.020134 0.932910 0.015034 -2.229082 2.361480 2.014592 -0.683501 0.301134 3.033474 -0.695020 0.045980 0.899574 -0.058489 0.453135 1.168082 0.000000 0.000000 0.000000 -1.523830 1.315565 -15.040939 3.563636 -0.398827 28.765544 -4.723077 -13.241694 9.042793 0.000000 0.000000 0.000000 -1.918251 -0.073952 4.057931 -0.284777 0.198645 -2.006978 1.673309 0.516959 10.532487 4.774667 -1.291444 -19.453969 0.000000 0.000000 0.000000 -16.797199 -0.748693 -1.392599 -48.212431 -2.120651 -5.323705 -9.581400 -28.109894 3.456838 0.000000 0.000000 0.000000 18.828033 7.018893 2.662754 51.472001 8.458978 -2.110127 -2.015903 23.479353 0.533488 0.000000 0.000000 0.000000 
0.020385 0.932467 0.019834 -2.374465 3.434827 0.578341 0.007427 0.403274 4.675890 -1.248188 0.097516 1.207438 -0.518733 -0.640260 0.862183 0.000000 0.000000 0.000000 -1.414949 1.503509 -17.564694 4.466977 -1.020232 35.347438 -6.113626 -16.219194 14.956837 0.000000 0.000000 0.000000 -2.119835 -0.137586 6.399481 0.310482 -0.072649 -1.844915 1.034074 0.801357 10.414002 5.114803 -1.389022 -19.361424 0.000000 0.000000 0.000000 -17.660390 -1.501770 -1.328634 -47.753320 -2.614708 -5.025812 -10.128791 -28.684358 3.596977 0.000000 0.000000 0.000000 18.576888 7.349811 3.088348 52.317040 8.548450 -2.139656 -0.612117 23.215323 0.815707 0.000000 0.000000 0.000000 
0.019852 0.931693 0.027583 -2.892564 4.024850 -0.381832 0.856298 0.441392 5.924171 -1.385242 0.100644 1.647136 -0.664533 -1.216171 0.346473 0.000000 0.000000 0.000000 -1.995105 1.617511 -20.595833 6.978255 -2.480307 39.307727 -8.232707 -19.648499 21.037787 0.000000 0.000000 0.000000 -1.780255 -0.209253 7.706230 0.161596 0.024039 -2.434476 1.594164 -0.116288 11.929019 4.527400 -1.018038 -20.541543 0.000000 0.000000 0.000000 -19.103063 -2.092391 -0.959926 -47.838305 -3.986485 -4.685852 -9.680171 -28.734800 3.566441 0.000000 0.000000 0.000000 17.159646 7.451208 2.982316 53.876884 8.873610 -2.115079 0.796891 24.990219 1.166571 0.000000 0.000000 0.000000 
0.018490 0.929814 0.038758 -3.235239 4.135420 -0.700831 1.241816 0.486118 6.965440 -1.077716 0.063463 1.705237 -0.523199 -1.309634 -0.363346 0.000000 0.000000 0.000000 -2.155403 1.743252 -22.971426 8.194008 -2.800160 35.149141 -14.448440 -27.025064 30.768261 0.000000 0.000000 0.000000 -1.618061 -0.238420 8.134473 0.494996 -0.138022 -2.176989 1.537505 -0.374603 12.018525 3.557954 -0.523155 -20.138432 0.000000 0.000000 0.000000 -19.137408 -2.293254 -0.799164 -48.630455 -4.920267 -4.431778 -9.760307 -29.465246 3.709091 0.000000 0.000000 0.000000 15.035223 7.766431 3.056484 56.054256 8.295137 -2.379300 2.229714 26.390873 1.549107 0.000000 0.000000 0.000000 
0.016188 0.926390 0.053252 -3.533861 4.471922 -0.799039 1.659982 0.537325 8.356512 -0.683440 0.036358 1.082854 -0.384399 -1.610645 -1.414521 0.000000 0.000000 0.000000 -2.281239 1.777899 -24.159538 7.865056 -2.012152 24.242996 -14.744192 -28.643508 22.054240 0.000000 0.000000 0.000000 -1.475891 -0.270629 8.643230 0.792946 -0.260940 -2.416717 1.872373 -0.467574 12.234251 2.808973 -0.043233 -20.538654 0.000000 0.000000 0.000000 -20.292100 -3.197542 -0.417704 -48.440407 -5.446815 -4.222106 -10.124562 -30.280051 3.918752 0.000000 0.000000 0.000000 14.007053 8.361760 3.340739 56.357340 8.185290 -2.438828 2.263471 27.739534 1.653594 0.000000 0.000000 0.000000 
0.012786 0.922092 0.070749 -3.530750 4.491895 -0.277275 1.643431 0.582928 9.075987 -0.081424 -0.023393 0.897538 -0.043473 -1.516029 -2.545621 0.000000 0.000000 0.000000 -2.391349 1.811550 -25.052215 5.878684 -0.933196 12.005350 -11.693025 -24.675562 19.190942 0.000000 0.000000 0.000000 -1.088421 -0.293654 8.498844 0.626081 -0.174828 -2.627796 1.812999 -0.314811 12.126725 2.527831 0.203292 -21.154632 0.000000 0.000000 0.000000 -20.282495 -3.807041 -0.137463 -48.913109 -5.963324 -4.028624 -9.573638 -31.553177 3.925959 0.000000 0.000000 0.000000 13.646935 8.589817 3.480621 57.195262 7.926123 -2.554300 1.669785 29.421533 1.650075 0.000000 0.000000 0.000000 
0.008068 0.917192 0.092002 -3.401883 5.366429 0.447435 1.459473 0.629287 9.810924 1.154044 -0.139701 0.533101 0.035965 -2.024673 -3.632104 0.000000 0.000000 0.000000 -2.906384 1.666858 -25.226216 4.607657 -0.570876 4.191382 -6.527930 -16.554034 15.831119 0.000000 0.000000 0.000000 -0.521524 -0.325268 8.113800 0.590479 -0.186970 -1.920033 1.393512 -0.293234 10.802035 2.245077 0.449950 -21.204270 0.000000 0.000000 0.000000 -19.226670 -4.232969 -0.007963 -50.203019 -6.106516 -3.913986 -9.726669 -32.795074 4.068161 0.000000 0.000000 0.000000 14.643888 8.423471 3.507157 56.165168 8.176367 -2.291160 0.362072 30.725591 1.417248 0.000000 0.000000 0.000000 
